<?xml version="1.0" encoding="UTF-8" standalone="no"?>
<svg
   width="512"
   height="512"
   viewBox="0 0 512 512"
   version="1.1"
   id="svg2"
   sodipodi:docname="european_union.svg"
   inkscape:export-filename="..\png\european_union.png"
   inkscape:export-xdpi="56.25"
   inkscape:export-ydpi="56.25"
   inkscape:version="1.3.2 (091e20e, 2023-11-25, custom)"
   xmlns:inkscape="http://www.inkscape.org/namespaces/inkscape"
   xmlns:sodipodi="http://sodipodi.sourceforge.net/DTD/sodipodi-0.dtd"
   xmlns="http://www.w3.org/2000/svg"
   xmlns:svg="http://www.w3.org/2000/svg">
  <defs
     id="defs2" />
  <sodipodi:namedview
     id="namedview2"
     pagecolor="#ffffff"
     bordercolor="#000000"
     borderopacity="0.25"
     inkscape:showpageshadow="2"
     inkscape:pageopacity="0.0"
     inkscape:pagecheckerboard="true"
     inkscape:deskcolor="#d1d1d1"
     inkscape:zoom="1.5878906"
     inkscape:cx="256"
     inkscape:cy="256"
     inkscape:window-width="1920"
     inkscape:window-height="1009"
     inkscape:window-x="-8"
     inkscape:window-y="-8"
     inkscape:window-maximized="1"
     inkscape:current-layer="svg2" />
  <mask
     id="a">
    <circle
       cx="256"
       cy="256"
       r="256"
       fill="#fff"
       id="circle1" />
  </mask>
  <g
     mask="url(#a)"
     id="g2">
    <path
       fill="#0052b4"
       d="M0 0h512v512H0z"
       id="path1" />
    <path
       fill="#ffda44"
       d="m256 100.2 8.3 25.5H291l-21.7 15.7 8.3 25.6-21.7-15.8-21.7 15.8 8.3-25.6-21.7-15.7h26.8zm-110.2 45.6 24 12.2 18.9-19-4.2 26.5 23.9 12.2-26.5 4.2-4.2 26.5-12.2-24-26.5 4.3 19-19zM100.2 256l25.5-8.3V221l15.7 21.7 25.6-8.3-15.8 21.7 15.8 21.7-25.6-8.3-15.7 21.7v-26.8zm45.6 110.2 12.2-24-19-18.9 26.5 4.2 12.2-23.9 4.2 26.5 26.5 4.2-24 12.2 4.3 26.5-19-19zM256 411.8l-8.3-25.5H221l21.7-15.7-8.3-25.6 21.7 15.8 21.7-15.8-8.3 25.6 21.7 15.7h-26.8zm110.2-45.6-24-12.2-18.9 19 4.2-26.5-23.9-12.2 26.5-4.2 4.2-26.5 12.2 24 26.5-4.3-19 19zM411.8 256l-25.5 8.3V291l-15.7-21.7-25.6 8.3 15.8-21.7-15.8-21.7 25.6 8.3 15.7-21.7v26.8zm-45.6-110.2-12.2 24 19 18.9-26.5-4.2-12.2 23.9-4.2-26.5-26.5-4.2 24-12.2-4.3-26.5 19 19z"
       id="path2" />
  </g>
</svg>
